<?xml version="1.0" encoding="utf-8"?>
<!-- Generator: Adobe Illustrator 22.1.0, SVG Export Plug-In . SVG Version: 6.00 Build 0)  -->
<svg version="1.1" id="Layer_1" xmlns="http://www.w3.org/2000/svg" xmlns:xlink="http://www.w3.org/1999/xlink" x="0px" y="0px"
	 width="200px" height="26px" viewBox="0 0 200 26" enable-background="new 0 0 200 26" xml:space="preserve">
<g>
	<g>
		<polygon fill="#F48F00" points="26.923,5.918 31.269,5.918 34.57,14.823 34.623,14.823 37.681,5.918 41.732,5.918 36.581,19.008 
			32.316,19.008 		"/>
		<path fill="#007FAD" d="M11.159,9.137H7.189v4.382c0,0.357,0.045,0.684,0.084,0.979c0.039,0.295,0.14,0.549,0.278,0.764
			c0.137,0.215,0.355,0.38,0.641,0.495c0.286,0.117,0.668,0.174,1.14,0.174c0.236,0,0.56-0.021,0.944-0.067
			c0.384-0.045,0.67-0.148,0.885-0.308v3.353c-0.536,0.161-1.016,0.268-1.547,0.322c-0.53,0.054-1.058,0.08-1.57,0.08
			c-0.749,0-1.44-0.071-2.068-0.215c-0.63-0.142-1.183-0.371-1.655-0.684C3.846,18.1,3.466,17.694,3.2,17.192
			c-0.265-0.501-0.411-1.109-0.411-1.824V9.135H0V5.918h2.79V2.055h4.399v3.863h3.97L11.159,9.137L11.159,9.137z"/>
		<path fill="#007FAD" d="M12.232,5.918h4.078v2.146h0.04c0.429-0.859,0.939-1.418,1.529-1.82c0.59-0.403,1.333-0.61,2.227-0.61
			c0.232,0,0.47,0.007,0.703,0.025c0.233,0.019,0.436,0.052,0.651,0.105V9.44c-0.322-0.09-0.574-0.157-0.851-0.201
			c-0.277-0.045-0.571-0.068-0.875-0.068c-0.769,0-1.379,0.108-1.826,0.322c-0.447,0.213-0.792,0.514-1.034,0.898
			c-0.241,0.385-0.392,0.845-0.463,1.381c-0.072,0.537-0.101,1.127-0.101,1.772v5.462h-4.078L12.232,5.918L12.232,5.918z"/>
		<path fill="#007FAD" d="M22.426,5.918h3.97v13.09h-3.97V5.918z M22.263,2.474c0-0.59,0.209-1.094,0.627-1.511
			c0.418-0.419,0.921-0.628,1.511-0.628c0.591,0,1.094,0.209,1.512,0.628c0.418,0.418,0.627,0.921,0.627,1.511
			c0,0.589-0.209,1.094-0.627,1.51c-0.418,0.419-0.921,0.628-1.512,0.628c-0.589,0-1.093-0.209-1.511-0.628
			C22.472,3.568,22.263,3.064,22.263,2.474"/>
		<path fill="#F48F00" d="M48.56,13.321c-0.304,0-0.684-0.009-1.141,0.018c-0.456,0.028-0.894,0.093-1.314,0.217
			c-0.42,0.125-0.778,0.308-1.073,0.557c-0.295,0.251-0.443,0.596-0.443,1.044c0,0.483,0.205,0.839,0.618,1.072
			c0.411,0.232,0.84,0.348,1.287,0.348c0.394,0,0.774-0.054,1.14-0.162c0.367-0.107,0.693-0.26,0.979-0.456
			c0.287-0.196,0.524-0.446,0.694-0.751c0.17-0.304,0.263-0.661,0.263-1.073v-0.814L48.56,13.321z M49.572,17.399h-0.073
			c-0.447,0.644-1.043,1.177-1.784,1.48c-0.743,0.305-1.526,0.445-2.348,0.445c-0.608,0-1.194-0.09-1.758-0.261
			c-0.563-0.169-1.06-0.428-1.489-0.767c-0.429-0.34-0.769-0.761-1.019-1.263c-0.251-0.5-0.376-1.082-0.376-1.744
			c0-0.751,0.138-1.387,0.416-1.905c0.277-0.519,0.652-0.949,1.127-1.288c0.474-0.34,1.016-0.603,1.624-0.791
			c0.608-0.188,1.238-0.327,1.892-0.416c0.652-0.089,1.305-0.143,1.959-0.162c0.653-0.017,1.256-0.027,1.81-0.027
			c0-0.714-0.254-1.283-0.764-1.703c-0.51-0.42-1.114-0.63-1.811-0.63c-0.661,0-1.266,0.138-1.81,0.415
			c-0.545,0.278-1.033,0.658-1.462,1.141l-2.147-2.2c0.751-0.697,1.627-1.221,2.63-1.569c1.002-0.349,2.039-0.523,3.113-0.523
			c1.18,0,2.15,0.147,2.911,0.443c0.76,0.295,1.368,0.729,1.825,1.302c0.456,0.572,0.756,1.273,0.935,2.106
			c0.179,0.832,0.251,1.793,0.251,2.884v6.643h-3.648v-1.609H49.572z"/>
		<path fill="#C94A30" d="M71.988,12.472c0,0.984,0.255,1.78,0.765,2.387c0.511,0.608,1.226,0.912,2.149,0.912
			s1.638-0.304,2.148-0.912c0.51-0.608,0.765-1.404,0.765-2.387c0-0.984-0.255-1.78-0.765-2.388
			c-0.51-0.608-1.225-0.912-2.148-0.912s-1.638,0.305-2.149,0.912C72.243,10.693,71.988,11.488,71.988,12.472 M68.347,12.472
			c0-1.037,0.171-1.976,0.509-2.818c0.34-0.84,0.805-1.559,1.397-2.158c0.59-0.599,1.285-1.06,2.087-1.382
			c0.802-0.322,1.655-0.484,2.561-0.484c0.906,0,1.759,0.162,2.56,0.484c0.801,0.322,1.496,0.783,2.088,1.382
			c0.591,0.599,1.056,1.319,1.395,2.158c0.34,0.842,0.511,1.781,0.511,2.818s-0.171,1.976-0.511,2.816
			c-0.339,0.841-0.804,1.561-1.395,2.159c-0.591,0.599-1.286,1.06-2.088,1.381c-0.801,0.322-1.655,0.484-2.56,0.484
			c-0.906,0-1.759-0.162-2.561-0.484c-0.802-0.321-1.497-0.782-2.087-1.381c-0.592-0.599-1.056-1.318-1.397-2.159
			C68.517,14.448,68.347,13.509,68.347,12.472"/>
		<path fill="#C94A30" d="M64.092,5.905v1.754h-0.061c-0.071-0.096-0.169-0.242-0.457-0.489c-0.38-0.327-0.657-0.48-1.033-0.688
			c-0.372-0.206-0.811-0.383-1.288-0.51c-0.476-0.125-1.089-0.228-1.663-0.228c-0.933,0-1.785,0.254-2.522,0.639
			c-0.736,0.386-1.274,0.778-1.766,1.431c-0.484,0.643-0.767,1.287-0.994,2.128c-0.227,0.839-0.284,1.806-0.284,2.667
			c0,0.986,0.149,1.922,0.39,2.767c0.243,0.851,0.633,1.618,1.138,2.197c0.55,0.63,1.114,0.956,1.904,1.288
			c0.79,0.332,1.629,0.453,2.599,0.442c0.613-0.007,1.21-0.142,1.9-0.407c0.84-0.323,1.426-0.928,1.658-1.256h0.046v1.268
			c0,0.933-0.204,1.7-0.786,2.301c-0.583,0.601-1.434,0.924-2.673,0.924c-0.825,0-1.343,0.017-2.183-0.21
			c-0.729-0.197-1.647-0.545-2.328-1.044l-1.958,2.874c1.044,0.755,1.987,1.22,3.12,1.52c1.121,0.297,2.269,0.39,3.436,0.39
			c2.549,0,4.352-0.642,5.6-1.925c1.247-1.283,1.756-3.163,1.756-5.64V5.905H64.092z M63.089,14.877
			c-0.511,0.611-1.229,0.915-2.154,0.915c-0.926,0-1.643-0.304-2.156-0.915c-0.511-0.61-0.767-1.409-0.767-2.395
			s0.256-1.785,0.767-2.396c0.512-0.61,1.23-0.916,2.156-0.916c0.925,0,1.643,0.306,2.154,0.916c0.512,0.611,0.768,1.41,0.768,2.396
			C63.856,13.468,63.6,14.267,63.089,14.877z"/>
	</g>
	<circle cx="168.897" cy="3.238" r="0.893"/>
	<path d="M102.822,5.918c-1.742,0-3.279,0.87-4.207,2.196h-0.069c-0.928-1.327-2.465-2.196-4.207-2.196
		c-2.836,0-5.134,2.299-5.134,5.134v7.067c0,0.493,0.4,0.893,0.893,0.893c0.493,0,0.893-0.4,0.893-0.893v-7.067
		c0-1.849,1.499-3.348,3.348-3.348c1.849,0,3.348,1.499,3.348,3.348v7.067c0,0.493,0.4,0.893,0.893,0.893
		c0.493,0,0.893-0.4,0.893-0.893v-7.067c0-1.849,1.499-3.348,3.348-3.348c1.849,0,3.348,1.499,3.348,3.348v7.067
		c0,0.493,0.4,0.893,0.893,0.893c0.493,0,0.893-0.4,0.893-0.893v-7.067C107.957,8.217,105.658,5.918,102.822,5.918z"/>
	<path d="M131.166,5.918c-3.615,0-6.546,2.931-6.546,6.546c0,3.615,2.931,6.546,6.546,6.546c1.878,0,3.566-0.795,4.76-2.062v0.865
		c0,2.629-2.131,4.76-4.76,4.76c-0.804,0-1.561-0.199-2.225-0.551l0,0c-0.128-0.07-0.272-0.11-0.428-0.11
		c-0.493,0-0.893,0.4-0.893,0.893c0,0.341,0.202,0.657,0.505,0.806l0,0c0.931,0.487,1.959,0.748,3.041,0.748
		c3.615,0,6.546-2.931,6.546-6.546v-5.349C137.712,8.849,134.782,5.918,131.166,5.918z M131.166,17.224
		c-2.629,0-4.76-2.131-4.76-4.76s2.131-4.76,4.76-4.76c2.629,0,4.76,2.131,4.76,4.76S133.795,17.224,131.166,17.224z"/>
	<path d="M178.786,5.918c-3.495,0-6.329,2.833-6.329,6.329v5.872c0,0.493,0.4,0.893,0.893,0.893c0.493,0,0.893-0.4,0.893-0.893
		v-5.872c0-2.509,2.034-4.543,4.543-4.543c2.509,0,4.543,2.034,4.543,4.543v5.872c0,0.493,0.4,0.893,0.893,0.893
		c0.493,0,0.893-0.4,0.893-0.893v-5.872C185.114,8.751,182.281,5.918,178.786,5.918z"/>
	<path d="M168.886,5.918c-0.493,0-0.893,0.4-0.893,0.893v11.306c0,0.493,0.4,0.893,0.893,0.893s0.893-0.4,0.893-0.893V6.811
		C169.779,6.318,169.379,5.918,168.886,5.918z"/>
	<path d="M193.45,5.918c-3.617,0-6.55,2.933-6.55,6.55c0,3.617,2.932,6.55,6.55,6.55c2.027,0,3.837-0.921,5.039-2.367l0,0
		c0.316-0.378,0.265-0.941-0.113-1.257c-0.377-0.315-0.94-0.262-1.257,0.112c-0.003,0.002,0,0-0.002,0.002
		c-0.874,1.053-2.192,1.724-3.667,1.724c-2.325,0-4.255-1.668-4.674-3.871h10.331c0.493,0,0.893-0.4,0.893-0.893
		C200,8.851,197.067,5.918,193.45,5.918z M193.45,7.704c2.325,0,4.255,1.668,4.674,3.871h-9.348
		C189.195,9.372,191.125,7.704,193.45,7.704z"/>
	<path d="M151.697,5.918c-0.493,0-0.893,0.4-0.893,0.893V7.98c-1.194-1.267-2.882-2.062-4.76-2.062
		c-3.615,0-6.546,2.931-6.546,6.546c0,3.615,2.931,6.546,6.546,6.546c1.878,0,3.566-0.795,4.76-2.062v1.169
		c0,0.493,0.4,0.893,0.893,0.893c0.493,0,0.893-0.4,0.893-0.893V6.811C152.59,6.318,152.191,5.918,151.697,5.918z M146.044,17.224
		c-2.629,0-4.76-2.131-4.76-4.76c0-2.629,2.131-4.76,4.76-4.76c2.629,0,4.76,2.131,4.76,4.76
		C150.804,15.093,148.673,17.224,146.044,17.224z"/>
	<path d="M121.942,5.918c-0.493,0-0.893,0.4-0.893,0.893V7.98c-1.194-1.267-2.882-2.062-4.76-2.062
		c-3.615,0-6.546,2.931-6.546,6.546c0,3.615,2.931,6.546,6.546,6.546c1.878,0,3.566-0.795,4.76-2.062v1.169
		c0,0.493,0.4,0.893,0.893,0.893c0.493,0,0.893-0.4,0.893-0.893V6.811C122.835,6.318,122.435,5.918,121.942,5.918z M116.289,17.224
		c-2.629,0-4.76-2.131-4.76-4.76c0-2.629,2.131-4.76,4.76-4.76c2.629,0,4.76,2.131,4.76,4.76
		C121.049,15.093,118.918,17.224,116.289,17.224z"/>
	<path d="M164.421,17.224h-7.292l7.973-9.855c0.126-0.154,0.212-0.344,0.212-0.559c0-0.493-0.4-0.893-0.893-0.893h-9.152
		c-0.493,0-0.893,0.4-0.893,0.893c0,0.493,0.4,0.893,0.893,0.893h7.286l-7.971,9.861c-0.123,0.153-0.208,0.34-0.208,0.552
		c0,0.493,0.4,0.893,0.893,0.893h9.152c0.493,0,0.893-0.4,0.893-0.893C165.314,17.624,164.914,17.224,164.421,17.224z"/>
</g>
</svg>
